<svg width="32" height="32" viewBox="0 0 32 32" fill="none" xmlns="http://www.w3.org/2000/svg">
<path d="M29.427 24.4811L29.258 24.143C28.7847 23.0274 22.9702 21.3371 22.4969 21.3034L22.125 21.3371C21.415 21.4722 20.6375 22.1146 19.1164 23.433C18.8122 23.7035 18.4063 23.7711 18.0345 23.5681C16.04 22.4525 13.606 20.2213 12.389 18.8692C11.0706 17.4157 9.48172 15.0154 8.738 13.0883C8.60289 12.7165 8.738 12.3109 9.00848 12.0404C10.7325 10.4853 11.4762 9.74179 11.5439 8.93034C11.5776 8.45708 10.5636 2.47353 9.51544 1.89884L9.21124 1.69604C8.5352 1.2565 7.52098 0.614151 6.4054 0.850909C6.13493 0.918586 5.86446 1.01998 5.62794 1.1551C4.88446 1.62884 3.02511 2.91352 2.17998 4.5698C1.673 5.61771 1.43626 15.1171 8.53538 23.1289C15.5669 31.0732 24.2549 31.4112 25.5395 31.1408H25.5732L25.6746 31.1071C27.4325 30.4647 28.92 28.8084 29.4946 28.0984C30.5425 26.8477 29.8329 25.3263 29.427 24.4811Z" stroke="white" stroke-width="1.5"/>
</svg>
