<svg viewBox="0 0 318 128" fill="none" xmlns="http://www.w3.org/2000/svg">
  <path
    d="M134.683 51.2411L141.889 59.0774L143.678 57.766L138.261 51.2411L143.678 44.7161L141.889 43.4209L134.683 51.2411Z"
    fill="white"/>
  <path
    d="M141.889 51.2411L149.095 59.0774L150.884 57.766L145.467 51.2411L150.884 44.7161L149.095 43.4209L141.889 51.2411Z"
    fill="white"/>
  <path
    d="M300.239 44.7161L305.656 51.2411L300.239 57.766L302.045 59.0774L309.234 51.2411L302.045 43.4209L300.239 44.7161Z"
    fill="white"/>
  <path
    d="M307.445 44.7161L312.845 51.2411L307.445 57.766L309.217 59.0774L316.44 51.2411L309.217 43.4209L307.445 44.7161Z"
    fill="white"/>
  <path fill-rule="evenodd" clip-rule="evenodd"
        d="M163.223 34.694L152.523 60.8423H156.101L159.077 53.6211H170.479L173.422 60.8423H177.552L167.018 34.694H163.223ZM164.778 39.5998L169.359 50.8363H160.18L164.778 39.5998Z"
        fill="white"/>
  <path d="M181.464 34.694V60.8423H197.465V58.0574H185.326V34.694H181.464Z" fill="white"/>
  <path d="M201.394 34.694V60.8423H217.377V58.0574H205.239V34.694H201.394Z" fill="white"/>
  <path d="M238.762 34.694L230.686 56.1469L222.326 34.694H218.498L228.696 60.8423H232.308L242.105 34.694H238.762Z"
        fill="white"/>
  <path d="M245.717 60.8423H249.562V34.694H245.717V60.8423Z" fill="white"/>
  <path fill-rule="evenodd" clip-rule="evenodd"
        d="M284.121 34.694L273.421 60.8423H276.982L279.958 53.6211H291.361L294.303 60.8423H298.433L287.9 34.694H284.121ZM285.676 39.5998L290.257 50.8363H281.078L285.676 39.5998Z"
        fill="white"/>
  <path
    d="M257.253 36.0055C255.749 37.3007 254.996 38.9684 254.996 40.9922C254.996 42.4818 255.464 43.7771 256.417 44.8942C257.354 46.0114 258.975 47.2095 261.283 48.4886L263.138 49.5248C264.76 50.4153 265.864 51.2087 266.466 51.9211C267.068 52.6335 267.368 53.524 267.368 54.5278C267.368 55.7745 266.9 56.7783 265.997 57.5393C265.078 58.3003 263.874 58.6889 262.369 58.6889C260.413 58.6889 257.889 57.9927 254.862 56.6164V60.3079C257.671 61.0689 259.995 61.4575 261.834 61.4575C264.693 61.4575 266.984 60.7613 268.706 59.3851C270.428 58.0088 271.298 56.1793 271.298 53.9126C271.298 52.3097 270.829 50.9334 269.91 49.8001C268.99 48.6505 267.369 47.4362 265.028 46.1571L263.088 45.0885C261.416 44.1656 260.246 43.3561 259.611 42.6923C258.975 42.0285 258.658 41.2513 258.658 40.3932C258.658 39.357 259.092 38.4989 259.962 37.8188C260.831 37.1388 261.918 36.7988 263.239 36.7988C264.643 36.7988 266.767 37.3331 269.609 38.4179V35.0178C267.302 34.3378 265.111 33.9978 263.021 33.9978C260.681 33.9978 258.758 34.6454 257.253 35.9569V36.0055Z"
    fill="white"/>
  <path
    d="M228.077 71.9182H229.413C229.647 73.0568 230.416 73.6349 231.702 73.6349C232.989 73.6349 233.757 73.0743 233.991 71.9182H235.327C235.227 72.9517 234.826 73.7575 234.175 74.3881C233.506 75.0012 232.688 75.3165 231.702 75.3165C230.716 75.3165 229.898 75.0012 229.23 74.3881C228.578 73.775 228.177 72.9517 228.077 71.9182Z"
    fill="white"/>
  <path
    d="M225.604 93.6745V76.7354H227.91V90.1711L235.695 76.7354H237.984V93.6745H235.678V80.2389L227.893 93.6745H225.604Z"
    fill="white"/>
  <path d="M219.139 76.7354H221.444V93.657H219.139V76.7354Z" fill="white"/>
  <path fill-rule="evenodd" clip-rule="evenodd"
        d="M207.645 93.6745V76.7354H209.95V83.9875H211.187C212.473 83.9875 213.392 84.0401 213.977 84.1452C214.561 84.2503 215.113 84.478 215.631 84.8284C216.867 85.6517 217.485 86.8779 217.485 88.4719C217.485 90.3638 216.783 91.7651 215.38 92.6936C214.428 93.3242 212.824 93.6395 210.585 93.6395H207.662L207.645 93.6745ZM209.934 91.9053H210.736C212.306 91.9053 213.392 91.66 214.01 91.1871C214.779 90.5915 215.163 89.7507 215.163 88.6471C215.163 87.6311 214.845 86.8779 214.194 86.4224C213.542 85.967 212.506 85.7392 211.053 85.7392H209.934V91.9053Z"
        fill="white"/>
  <path fill-rule="evenodd" clip-rule="evenodd"
        d="M194.798 93.657V76.7354H198.974C200.595 76.7354 201.831 77.0507 202.683 77.6989C203.552 78.3295 203.969 79.2579 203.969 80.4666C203.969 81.4475 203.685 82.3059 203.117 83.0767C202.549 83.8299 201.731 84.4255 200.678 84.8459C203.301 85.6867 204.621 87.2107 204.621 89.4354C204.621 90.4338 204.337 91.3097 203.752 92.0805C203.301 92.6761 202.767 93.0789 202.148 93.3067C201.53 93.5519 200.662 93.657 199.542 93.657H194.798ZM197.086 84.1802H197.805C199.024 84.1802 199.96 83.8999 200.628 83.3569C201.296 82.8139 201.631 82.0256 201.631 81.0096C201.631 79.363 200.411 78.5397 197.972 78.5397H197.086V84.1802ZM197.086 91.8702H197.554C199.208 91.8702 200.294 91.7651 200.778 91.5374C201.714 91.117 202.182 90.3463 202.182 89.2077C202.182 88.2092 201.764 87.3683 200.912 86.7027C200.06 86.037 199.008 85.7042 197.721 85.7042H197.086V91.8702Z"
        fill="white"/>
  <path fill-rule="evenodd" clip-rule="evenodd"
        d="M184.055 94.0949C181.766 94.0949 179.929 93.2891 178.559 91.6776C177.189 90.066 176.504 87.9114 176.504 85.2137C176.504 82.5161 177.189 80.3615 178.559 78.7499C179.929 77.1383 181.766 76.3325 184.055 76.3325C186.344 76.3325 188.182 77.1383 189.552 78.7499C190.922 80.3615 191.607 82.5161 191.607 85.2137C191.607 87.9114 190.922 90.066 189.552 91.6776C188.182 93.2891 186.344 94.0949 184.055 94.0949ZM184.055 92.2907C185.659 92.2907 186.912 91.66 187.814 90.4163C188.716 89.1726 189.167 87.4209 189.167 85.1962C189.167 82.9715 188.716 81.2549 187.814 80.0112C186.912 78.7674 185.659 78.1368 184.055 78.1368C182.451 78.1368 181.198 78.7674 180.296 80.0112C179.394 81.2549 178.943 82.9891 178.943 85.1962C178.943 87.4034 179.394 89.1726 180.296 90.4163C181.198 91.66 182.451 92.2907 184.055 92.2907Z"
        fill="white"/>
  <path
    d="M164.007 93.3943V91.2922C165.695 91.9403 167.165 92.2556 168.385 92.2556C169.487 92.2556 170.373 91.9754 171.024 91.3973C171.676 90.8192 172.01 90.0485 172.01 89.085C172.01 87.9289 171.576 87.053 170.724 86.4399C169.871 85.8444 168.602 85.529 166.948 85.529H166.614V83.8474H166.931C168.418 83.8474 169.587 83.5671 170.406 83.0066C171.225 82.446 171.642 81.6402 171.642 80.6242C171.642 78.9951 170.523 78.1718 168.301 78.1718C167.148 78.1718 165.795 78.4521 164.292 79.0127V77.0683C165.678 76.5953 167.065 76.3676 168.435 76.3676C170.206 76.3676 171.576 76.7179 172.545 77.4361C173.513 78.1368 173.998 79.1353 173.998 80.4315C173.998 82.4285 172.829 83.7948 170.473 84.513C171.726 84.7233 172.712 85.2312 173.413 85.9845C174.115 86.7552 174.466 87.7362 174.466 88.8923C174.466 90.3813 173.898 91.625 172.745 92.641C171.592 93.6395 170.172 94.1475 168.468 94.1475C166.948 94.1475 165.461 93.9023 164.041 93.4468L164.007 93.3943Z"
    fill="white"/>
  <path
    d="M148.838 93.6745V76.7354H151.144V90.1711L158.929 76.7354H161.218V93.6745H158.912V80.2389L151.127 93.6745H148.838Z"
    fill="white"/>
  <path fill-rule="evenodd" clip-rule="evenodd"
        d="M135.991 93.6745V76.7354H140.167C141.771 76.7354 143.007 77.0507 143.876 77.6989C144.745 78.3295 145.179 79.2579 145.179 80.4666C145.179 81.4475 144.895 82.3059 144.327 83.0767C143.759 83.8299 142.941 84.4255 141.888 84.8459C144.511 85.6867 145.831 87.2107 145.831 89.4354C145.831 90.4338 145.547 91.3097 144.962 92.0805C144.511 92.6761 143.976 93.0789 143.358 93.3067C142.74 93.5519 141.871 93.657 140.752 93.657H136.007L135.991 93.6745ZM138.998 84.1802C140.217 84.1802 141.153 83.8999 141.821 83.3569C142.49 82.8139 142.807 82.0256 142.807 81.0096C142.807 79.363 141.587 78.5397 139.148 78.5397H138.263V84.1802H138.998ZM138.28 91.8702H138.747C140.401 91.8702 141.487 91.7651 141.972 91.5374C142.907 91.117 143.375 90.3463 143.375 89.2077C143.375 88.2092 142.957 87.3683 142.105 86.7027C141.253 86.037 140.201 85.7042 138.914 85.7042H138.28V91.8702Z"
        fill="white"/>
  <path fill-rule="evenodd" clip-rule="evenodd"
        d="M307.93 77.1654V93.2799H310.223V86.8974H311.22C313.263 86.8974 314.874 86.3975 316.02 85.4309C317.183 84.4644 317.748 83.1146 317.748 81.3981C317.748 80.1983 317.465 79.2651 316.901 78.5818C316.469 78.0486 315.904 77.682 315.223 77.482C314.525 77.2654 313.562 77.1654 312.299 77.1654H307.93ZM311.136 85.1643H310.206V78.8818H311.602C312.931 78.8818 313.877 79.0984 314.459 79.4984C315.04 79.915 315.323 80.5982 315.323 81.5648C315.323 82.7146 314.957 83.5978 314.226 84.2311C313.495 84.8477 312.465 85.1643 311.136 85.1643Z"
        fill="white"/>
  <path d="M297.698 78.8651V93.2632H299.974V78.8651H305.671V77.1487H292.017V78.8651H297.698Z" fill="white"/>
  <path
    d="M277.565 77.1654V93.2632H279.857V85.6642H287.465V93.2632H289.758V77.1654H287.465V83.9478H279.857V77.1654H277.565Z"
    fill="white"/>
  <path
    d="M265.521 77.1654V93.2799H274.957V91.5634H267.814V85.7642H273.412V84.0478H267.814V78.8818H274.492V77.1654H265.521Z"
    fill="white"/>
  <path
    d="M248.445 77.1654V93.2632H260.638V96.7627H262.781V91.2635H260.638V77.1654H258.345V91.2635H250.737V77.1654H248.445Z"
    fill="white"/>
  <path fill-rule="evenodd" clip-rule="evenodd"
        d="M85.3009 8.65609C86.2826 3.79867 87.3093 0.962501 88.5862 0.13475C88.7274 0.0449167 88.8621 0 88.984 0C90.7037 0 90.4214 8.55984 90.3444 9.41326C90.3444 9.41326 92.7891 11.242 97.6851 14.8995C97.6851 14.8995 97.5311 16.5229 97.2231 19.7762C97.2231 19.7762 94.3805 18.249 88.6889 15.2011C88.7145 15.0535 88.7017 15.0471 88.6568 15.1819L88.6642 15.1856L88.6725 15.1899C88.6793 15.1937 88.6852 15.1974 88.6889 15.2011C88.6183 15.6118 88.2846 17.1389 87.6879 19.7954C89.4717 21.8167 90.3636 22.8305 90.3636 22.8305C90.216 24.5374 90.139 25.3844 90.139 25.3844C88.6943 24.433 87.3667 23.6966 85.4681 23.5367C86.4643 109.476 -1.40733 127.286 0.0171339 75.2354C3.01372 93.2277 17.0983 95.942 31.6128 92.477V92.4834C60.2485 85.6501 82.4177 56.3616 85.4681 23.5367C84.2552 23.4346 82.8086 23.5678 80.9504 24.0304C80.9504 24.0304 81.1236 23.1963 81.4637 21.5151L84.8902 19.3591C85.0699 16.6513 85.1854 15.0856 85.2367 14.6749C78.9227 15.9904 75.7593 16.6449 75.7593 16.6449C76.3881 13.4429 76.7025 11.8388 76.7025 11.8388C82.439 9.71485 85.3009 8.65609 85.3009 8.65609ZM85.2752 14.6749C85.2752 14.6749 85.256 14.6749 85.2367 14.6814C85.256 14.5338 85.2688 14.5274 85.2752 14.6749Z"
        fill="white"/>
  <path
    d="M7.51206 60.1499C4.76573 56.9673 4.58606 51.5965 9.0264 44.3392L9.03282 44.3521C17.5927 30.3637 35.4503 22.3557 51.9925 22.3557C55.143 22.3557 58.2487 22.6445 61.226 23.2412C54.9698 22.6573 48.4954 23.2797 42.3354 25.0186C31.8954 27.9703 22.3603 34.1431 16.3286 43.1714C5.91431 58.7575 27.3653 63.8716 40.9301 46.3541C31.9018 63.5636 13.5373 67.1184 7.51206 60.1499Z"
    fill="white"/>
  <path
    d="M22.6934 82.5635C8.89757 84.5077 -2.17761 77.2761 2.14723 59.8933C0.77406 91.842 55.9061 69.6467 62.4383 37.0564C61.4501 65.7004 39.7554 80.1572 22.6934 82.5635Z"
    fill="white"/>
  <path
    d="M41.0129 40.8934L36.0657 39.1737L39.0687 43.4601L35.9053 47.6309L40.9103 46.0973L43.9069 50.3965L43.9967 45.1605L49.0017 43.6397L44.048 41.9393L44.1571 36.7097L41.0129 40.8934Z"
    fill="white"/>
  <path
    d="M93.3908 63.8631C90.0697 110.795 30.1829 136.025 8.5835 103.02C35.9707 126.536 82.9803 101.953 93.3637 63.8737L87.1034 66.3486L90.7674 60.6249L86.4297 55.3953L93.0004 57.1086L96.645 51.3721L97.0429 58.1545L103.626 59.8421L97.2995 62.3189L97.7295 69.1013L93.4174 63.8525L93.3908 63.8631Z"
    fill="white"/>
  <path
    d="M62.1821 30.1071L55.605 28.3939L59.9362 33.6299L56.2723 39.3471L62.5927 36.851L66.9047 42.0935L66.4748 35.3175L72.8017 32.8406L66.2182 31.153L65.8203 24.3706L62.1821 30.1071Z"
    fill="white"/>
  <path
    d="M103.272 85.3488C94.3872 123.33 51.2523 136.394 25.2529 118.92C54.4752 132.261 86.4416 115.918 103.259 85.354L98.4035 87.2795L101.227 82.8648L97.8838 78.8288L102.953 80.1506L105.757 75.7295L106.065 80.9527L111.141 82.2553L106.264 84.1674L106.598 89.397L103.274 85.3481L103.272 85.3488Z"
    fill="white"/>
</svg>
