<svg xmlns="http://www.w3.org/2000/svg" xmlns:xlink="http://www.w3.org/1999/xlink"><symbol id="logo__allvisa--shadow" viewBox="0 0 318 128"><g fill="none"><path d="M134.683 51.241l7.206 7.836 1.789-1.311-5.417-6.525 5.417-6.525-1.789-1.295-7.206 7.82z" fill="#fff"/><path d="M141.889 51.241l7.206 7.836 1.789-1.311-5.417-6.525 5.417-6.525-1.789-1.295-7.206 7.82zm158.35-6.525l5.417 6.525-5.417 6.525 1.806 1.311 7.189-7.836-7.189-7.82-1.806 1.295z" fill="#fff"/><path d="M307.445 44.716l5.4 6.525-5.4 6.525 1.772 1.311 7.223-7.836-7.223-7.82-1.772 1.295z" fill="#fff"/><path fill-rule="evenodd" clip-rule="evenodd" d="M163.223 34.694l-10.7 26.148h3.578l2.976-7.22h11.402l2.943 7.22h4.13l-10.534-26.148h-3.795zm1.555 4.906l4.581 11.236h-9.179l4.598-11.236z" fill="#fff"/><path d="M181.464 34.694v26.148h16.001v-2.785h-12.139V34.694h-3.862zm19.93 0v26.148h15.983v-2.785h-12.138V34.694h-3.845zm37.368 0l-8.076 21.453-8.36-21.453h-3.828l10.198 26.148h3.612l9.797-26.148h-3.343zm6.955 26.148h3.845V34.694h-3.845v26.148z" fill="#fff"/><path fill-rule="evenodd" clip-rule="evenodd" d="M284.121 34.694l-10.7 26.148h3.561l2.976-7.22h11.403l2.942 7.22h4.13L287.9 34.694h-3.779zm1.555 4.906l4.581 11.236h-9.179l4.598-11.236z" fill="#fff"/><path d="M257.253 36.005c-1.504 1.296-2.257 2.963-2.257 4.987 0 1.49.468 2.785 1.421 3.902.937 1.117 2.558 2.316 4.866 3.595l1.855 1.036c1.622.89 2.726 1.684 3.328 2.396.602.712.902 1.603.902 2.607 0 1.247-.468 2.25-1.371 3.011-.919.761-2.123 1.15-3.628 1.15-1.956 0-4.48-.696-7.507-2.073v3.692c2.809.76 5.133 1.15 6.972 1.15 2.859 0 5.15-.697 6.872-2.073 1.722-1.376 2.592-3.206 2.592-5.472 0-1.603-.469-2.98-1.388-4.113-.92-1.15-2.541-2.364-4.882-3.643l-1.94-1.068c-1.672-.923-2.842-1.733-3.477-2.397-.636-.663-.953-1.44-.953-2.299 0-1.036.434-1.894 1.304-2.574.869-.68 1.956-1.02 3.277-1.02 1.404 0 3.528.534 6.37 1.619v-3.4c-2.307-.68-4.498-1.02-6.588-1.02-2.34 0-4.263.647-5.768 1.959v.048zm-29.176 35.913h1.336c.234 1.139 1.003 1.717 2.289 1.717 1.287 0 2.055-.56 2.289-1.717h1.336c-.1 1.034-.501 1.84-1.152 2.47-.669.613-1.487.928-2.473.928-.986 0-1.804-.315-2.472-.928-.652-.613-1.053-1.436-1.153-2.47zm-2.473 21.756V76.736h2.306v13.436l7.785-13.436h2.289v16.94h-2.306V80.238l-7.785 13.435h-2.289zm-6.465-16.939h2.305v16.922h-2.305V76.735z" fill="#fff"/><path fill-rule="evenodd" clip-rule="evenodd" d="M207.645 93.674V76.736h2.305v7.252h1.237c1.286 0 2.205.053 2.79.158a4.284 4.284 0 011.654.683c1.236.824 1.854 2.05 1.854 3.644 0 1.892-.702 3.293-2.105 4.222-.952.63-2.556.945-4.795.945h-2.923l-.017.035zm2.289-1.769h.802c1.57 0 2.656-.245 3.274-.718.769-.596 1.153-1.436 1.153-2.54 0-1.016-.318-1.77-.969-2.225-.652-.455-1.688-.683-3.141-.683h-1.119v6.166zm-15.136 1.752V76.735h4.176c1.621 0 2.857.316 3.709.964.869.63 1.286 1.559 1.286 2.768 0 .98-.284 1.839-.852 2.61-.568.753-1.386 1.349-2.439 1.769 2.623.84 3.943 2.365 3.943 4.59 0 .998-.284 1.874-.869 2.644-.451.596-.985.999-1.604 1.227-.618.245-1.486.35-2.606.35h-4.744zm2.288-9.477h.719c1.219 0 2.155-.28 2.823-.823.668-.543 1.003-1.331 1.003-2.347 0-1.647-1.22-2.47-3.659-2.47h-.886v5.64zm0 7.69h.468c1.654 0 2.74-.105 3.224-.333.936-.42 1.404-1.19 1.404-2.33 0-.998-.418-1.839-1.27-2.504-.852-.666-1.904-.999-3.191-.999h-.635v6.166zm-13.031 2.225c-2.289 0-4.126-.806-5.496-2.417-1.37-1.612-2.055-3.767-2.055-6.464 0-2.698.685-4.852 2.055-6.464s3.207-2.418 5.496-2.418c2.289 0 4.127.806 5.497 2.418s2.055 3.766 2.055 6.464c0 2.697-.685 4.852-2.055 6.464-1.37 1.611-3.208 2.417-5.497 2.417zm0-1.804c1.604 0 2.857-.631 3.759-1.875.902-1.243 1.353-2.995 1.353-5.22 0-2.224-.451-3.941-1.353-5.185-.902-1.244-2.155-1.874-3.759-1.874s-2.857.63-3.759 1.874c-.902 1.244-1.353 2.978-1.353 5.185 0 2.207.451 3.977 1.353 5.22.902 1.244 2.155 1.875 3.759 1.875z" fill="#fff"/><path d="M164.007 93.394v-2.102c1.688.648 3.158.964 4.378.964 1.102 0 1.988-.28 2.639-.859.652-.578.986-1.349.986-2.312 0-1.156-.434-2.032-1.286-2.645-.853-.596-2.122-.911-3.776-.911h-.334v-1.682h.317c1.487 0 2.656-.28 3.475-.84.819-.561 1.236-1.367 1.236-2.383 0-1.629-1.119-2.452-3.341-2.452-1.153 0-2.506.28-4.009.84v-1.944c1.386-.473 2.773-.7 4.143-.7 1.771 0 3.141.35 4.11 1.068.968.7 1.453 1.7 1.453 2.995 0 1.998-1.169 3.364-3.525 4.082 1.253.21 2.239.718 2.94 1.471.702.771 1.053 1.752 1.053 2.908 0 1.49-.568 2.733-1.721 3.749-1.153.998-2.573 1.506-4.277 1.506-1.52 0-3.007-.245-4.427-.7l-.034-.053zm-15.169.28V76.736h2.306v13.436l7.785-13.436h2.289v16.94h-2.306V80.238l-7.785 13.435h-2.289z" fill="#fff"/><path fill-rule="evenodd" clip-rule="evenodd" d="M135.991 93.674V76.736h4.176c1.604 0 2.84.316 3.709.964.869.63 1.303 1.559 1.303 2.768 0 .98-.284 1.839-.852 2.61-.568.753-1.386 1.349-2.439 1.769 2.623.84 3.943 2.365 3.943 4.59 0 .998-.284 1.874-.869 2.644-.451.596-.986.999-1.604 1.227-.618.245-1.487.35-2.606.35h-4.745l-.016.017zm3.007-9.494c1.219 0 2.155-.28 2.823-.823.669-.543.986-1.331.986-2.347 0-1.647-1.22-2.47-3.659-2.47h-.885v5.64h.735zm-.718 7.69h.467c1.654 0 2.74-.105 3.225-.333.935-.42 1.403-1.19 1.403-2.33 0-.998-.418-1.839-1.27-2.504-.852-.666-1.904-.999-3.191-.999h-.634v6.166zm169.65-14.705V93.28h2.293v-6.383h.997c2.043 0 3.654-.5 4.8-1.466 1.163-.967 1.728-2.316 1.728-4.033 0-1.2-.283-2.133-.847-2.816a3.31 3.31 0 00-1.678-1.1c-.698-.217-1.661-.317-2.924-.317h-4.369zm3.206 8h-.93v-6.283h1.396c1.329 0 2.275.216 2.857.616.581.417.864 1.1.864 2.067 0 1.15-.366 2.033-1.097 2.666-.731.617-1.761.933-3.09.933z" fill="#fff"/><path d="M297.698 78.865v14.398h2.276V78.865h5.697V77.15h-13.654v1.716h5.681zm-20.133-1.7v16.098h2.292v-7.599h7.608v7.6h2.293v-16.1h-2.293v6.783h-7.608v-6.783h-2.292zm-12.044 0V93.28h9.436v-1.717h-7.143v-5.799h5.598v-1.716h-5.598v-5.166h6.678v-1.717h-8.971zm-17.076 0v16.098h12.193v3.5h2.143v-5.5h-2.143V77.165h-2.293v14.098h-7.608V77.165h-2.292z" fill="#fff"/><path fill-rule="evenodd" clip-rule="evenodd" d="M85.3 10.1c.982-4.857 2.009-7.694 3.286-8.521a.755.755 0 01.398-.135c1.72 0 1.437 8.56 1.36 9.413 0 0 2.445 1.829 7.34 5.486l-.461 4.877s-2.843-1.527-8.535-4.575c.026-.148.013-.154-.032-.02a.164.164 0 01.032.02c-.07.41-.404 1.938-1 4.594 1.783 2.021 2.675 3.035 2.675 3.035-.147 1.707-.224 2.554-.224 2.554-1.445-.951-2.773-1.687-4.67-1.847C86.463 110.92-1.408 128.73.016 76.679c2.997 17.993 17.081 20.707 31.596 17.242v.006c28.636-6.833 50.805-36.122 53.855-68.946-1.213-.103-2.66.03-4.518.493 0 0 .173-.834.513-2.515l3.427-2.156c.18-2.708.295-4.274.346-4.684-6.314 1.315-9.477 1.97-9.477 1.97l.943-4.806L85.3 10.1zm-.025 6.019s-.02 0-.039.006c.02-.147.032-.154.039-.006z" fill="#1A1A18"/><path d="M7.514 61.594c-2.746-3.183-2.926-8.554 1.514-15.81l.007.012C17.595 31.808 35.452 23.8 51.995 23.8c3.15 0 6.256.288 9.233.885-6.256-.584-12.73.039-18.89 1.777-10.44 2.952-19.976 9.125-26.008 18.153-10.414 15.586 11.037 20.7 24.602 3.183-9.028 17.21-27.393 20.764-33.418 13.796z" fill="#1A1A18"/><path d="M22.695 84.007C8.899 85.958-2.176 78.72 2.149 61.337.776 93.286 55.908 71.091 62.439 38.5c-.987 28.644-22.682 43.101-39.744 45.507z" fill="#1A1A18"/><path d="M41.014 42.337l-4.947-1.72 3.003 4.287-3.164 4.17 5.005-1.533 2.997 4.293.09-5.23 5.005-1.52-4.954-1.7.11-5.23-3.145 4.183zm52.376 22.97c-3.32 46.932-63.207 72.162-84.806 39.157 27.387 23.516 74.397-1.067 84.78-39.147l-6.26 2.475 3.663-5.724-4.337-5.23L93 58.553l3.645-5.736.398 6.782 6.583 1.688-6.327 2.477.43 6.776-4.312-5.243-.026.01zM62.182 31.55l-6.578-1.713 4.332 5.237-3.664 5.717 6.32-2.503 4.312 5.25-.43-6.777 6.327-2.477-6.583-1.687-.398-6.783-3.638 5.737z" fill="#1A1A18"/><path d="M103.272 86.794c-8.886 37.98-52.02 51.044-78.02 33.57 29.223 13.341 61.189-3.002 78.006-33.565l-4.852 1.925 2.823-4.415-3.343-4.036 5.069 1.322 2.804-4.421.308 5.223 5.076 1.302-4.877 1.913.334 5.23-3.324-4.05-.004.002z" fill="#1A1A18"/><path fill-rule="evenodd" clip-rule="evenodd" d="M85.3 8.656C86.284 3.8 87.31.963 88.587.135A.755.755 0 0188.984 0c1.72 0 1.437 8.56 1.36 9.413 0 0 2.445 1.829 7.341 5.486l-.462 4.877s-2.843-1.527-8.534-4.575c.026-.148.013-.154-.032-.02l.007.005.008.004a.078.078 0 01.017.011c-.07.41-.404 1.938-1.001 4.594l2.676 3.035a691.542 691.542 0 01-.225 2.554c-1.445-.951-2.772-1.687-4.67-1.847.995 85.939-86.876 103.749-85.452 51.698 2.997 17.993 17.081 20.707 31.596 17.242v.006c28.636-6.833 50.805-36.121 53.855-68.946-1.213-.102-2.66.03-4.518.493 0 0 .174-.834.514-2.515l3.426-2.156c.18-2.708.295-4.273.347-4.684-6.314 1.315-9.478 1.97-9.478 1.97.63-3.202.944-4.806.944-4.806L85.3 8.656zm-.025 6.019s-.019 0-.038.006c.019-.147.032-.154.038-.006z" fill="#fff"/><path d="M7.512 60.15c-2.746-3.183-2.926-8.553 1.514-15.81l.007.012c8.56-13.988 26.417-21.996 42.96-21.996 3.15 0 6.256.288 9.233.885-6.256-.584-12.73.039-18.89 1.778-10.44 2.951-19.976 9.124-26.007 18.152-10.415 15.587 11.036 20.7 24.601 3.183-9.028 17.21-27.393 20.764-33.418 13.796z" fill="#fff"/><path d="M22.693 82.564c-13.795 1.944-24.87-5.288-20.546-22.67-1.373 31.948 53.76 9.753 60.291-22.838C61.45 65.7 39.755 80.157 22.693 82.564z" fill="#fff"/><path d="M41.013 40.893l-4.947-1.72 3.003 4.287-3.164 4.17 5.005-1.533 2.997 4.3.09-5.236 5.005-1.521-4.954-1.7.11-5.23-3.145 4.183zm52.377 22.97c-3.32 46.932-63.207 72.162-84.806 39.157 27.387 23.516 74.396-1.067 84.78-39.146l-6.26 2.475 3.663-5.724-4.337-5.23L93 57.11l3.645-5.737.398 6.782 6.583 1.688-6.327 2.477.43 6.782-4.312-5.248-.026.01zM62.182 30.107l-6.577-1.713 4.331 5.236-3.664 5.717 6.32-2.496 4.313 5.242-.43-6.776 6.327-2.476-6.584-1.688-.398-6.782-3.638 5.736z" fill="#fff"/><path d="M103.272 85.349c-8.885 37.981-52.02 51.045-78.02 33.571 29.223 13.341 61.19-3.002 78.007-33.566l-4.856 1.925 2.824-4.414-3.343-4.036 5.069 1.322 2.804-4.421.308 5.223 5.076 1.302-4.877 1.912.334 5.23-3.324-4.049h-.002z" fill="#fff"/></g></symbol><symbol id="logo__allvisa" viewBox="0 0 318 128"><g fill="none"><path d="M134.683 51.241l7.206 7.836 1.789-1.311-5.417-6.525 5.417-6.525-1.789-1.295-7.206 7.82z" fill="#fff"/><path d="M141.889 51.241l7.206 7.836 1.789-1.311-5.417-6.525 5.417-6.525-1.789-1.295-7.206 7.82zm158.35-6.525l5.417 6.525-5.417 6.525 1.806 1.311 7.189-7.836-7.189-7.82-1.806 1.295z" fill="#fff"/><path d="M307.445 44.716l5.4 6.525-5.4 6.525 1.772 1.311 7.223-7.836-7.223-7.82-1.772 1.295z" fill="#fff"/><path fill-rule="evenodd" clip-rule="evenodd" d="M163.223 34.694l-10.7 26.148h3.578l2.976-7.22h11.402l2.943 7.22h4.13l-10.534-26.148h-3.795zm1.555 4.906l4.581 11.236h-9.179l4.598-11.236z" fill="#fff"/><path d="M181.464 34.694v26.148h16.001v-2.785h-12.139V34.694h-3.862zm19.93 0v26.148h15.983v-2.785h-12.138V34.694h-3.845zm37.368 0l-8.076 21.453-8.36-21.453h-3.828l10.198 26.148h3.612l9.797-26.148h-3.343zm6.955 26.148h3.845V34.694h-3.845v26.148z" fill="#fff"/><path fill-rule="evenodd" clip-rule="evenodd" d="M284.121 34.694l-10.7 26.148h3.561l2.976-7.22h11.403l2.942 7.22h4.13L287.9 34.694h-3.779zm1.555 4.906l4.581 11.236h-9.179l4.598-11.236z" fill="#fff"/><path d="M257.253 36.005c-1.504 1.296-2.257 2.963-2.257 4.987 0 1.49.468 2.785 1.421 3.902.937 1.117 2.558 2.316 4.866 3.595l1.855 1.036c1.622.89 2.726 1.684 3.328 2.396.602.712.902 1.603.902 2.607 0 1.247-.468 2.25-1.371 3.011-.919.761-2.123 1.15-3.628 1.15-1.956 0-4.48-.696-7.507-2.073v3.692c2.809.76 5.133 1.15 6.972 1.15 2.859 0 5.15-.697 6.872-2.073 1.722-1.376 2.592-3.206 2.592-5.472 0-1.603-.469-2.98-1.388-4.113-.92-1.15-2.541-2.364-4.882-3.643l-1.94-1.068c-1.672-.923-2.842-1.733-3.477-2.397-.636-.663-.953-1.44-.953-2.299 0-1.036.434-1.894 1.304-2.574.869-.68 1.956-1.02 3.277-1.02 1.404 0 3.528.534 6.37 1.619v-3.4c-2.307-.68-4.498-1.02-6.588-1.02-2.34 0-4.263.647-5.768 1.959v.048zm-29.176 35.913h1.336c.234 1.139 1.003 1.717 2.289 1.717 1.287 0 2.055-.56 2.289-1.717h1.336c-.1 1.034-.501 1.84-1.152 2.47-.669.613-1.487.928-2.473.928-.986 0-1.804-.315-2.472-.928-.652-.613-1.053-1.436-1.153-2.47zm-2.473 21.756V76.736h2.306v13.436l7.785-13.436h2.289v16.94h-2.306V80.238l-7.785 13.435h-2.289zm-6.465-16.939h2.305v16.922h-2.305V76.735z" fill="#fff"/><path fill-rule="evenodd" clip-rule="evenodd" d="M207.645 93.674V76.736h2.305v7.252h1.237c1.286 0 2.205.053 2.79.158a4.284 4.284 0 011.654.683c1.236.824 1.854 2.05 1.854 3.644 0 1.892-.702 3.293-2.105 4.222-.952.63-2.556.945-4.795.945h-2.923l-.017.035zm2.289-1.769h.802c1.57 0 2.656-.245 3.274-.718.769-.596 1.153-1.436 1.153-2.54 0-1.016-.318-1.77-.969-2.225-.652-.455-1.688-.683-3.141-.683h-1.119v6.166zm-15.136 1.752V76.735h4.176c1.621 0 2.857.316 3.709.964.869.63 1.286 1.559 1.286 2.768 0 .98-.284 1.839-.852 2.61-.568.753-1.386 1.349-2.439 1.769 2.623.84 3.943 2.365 3.943 4.59 0 .998-.284 1.874-.869 2.644-.451.596-.985.999-1.604 1.227-.618.245-1.486.35-2.606.35h-4.744zm2.288-9.477h.719c1.219 0 2.155-.28 2.823-.823.668-.543 1.003-1.331 1.003-2.347 0-1.647-1.22-2.47-3.659-2.47h-.886v5.64zm0 7.69h.468c1.654 0 2.74-.105 3.224-.333.936-.42 1.404-1.19 1.404-2.33 0-.998-.418-1.839-1.27-2.504-.852-.666-1.904-.999-3.191-.999h-.635v6.166zm-13.031 2.225c-2.289 0-4.126-.806-5.496-2.417-1.37-1.612-2.055-3.767-2.055-6.464 0-2.698.685-4.852 2.055-6.464s3.207-2.418 5.496-2.418c2.289 0 4.127.806 5.497 2.418s2.055 3.766 2.055 6.464c0 2.697-.685 4.852-2.055 6.464-1.37 1.611-3.208 2.417-5.497 2.417zm0-1.804c1.604 0 2.857-.631 3.759-1.875.902-1.243 1.353-2.995 1.353-5.22 0-2.224-.451-3.941-1.353-5.185-.902-1.244-2.155-1.874-3.759-1.874s-2.857.63-3.759 1.874c-.902 1.244-1.353 2.978-1.353 5.185 0 2.207.451 3.977 1.353 5.22.902 1.244 2.155 1.875 3.759 1.875z" fill="#fff"/><path d="M164.007 93.394v-2.102c1.688.648 3.158.964 4.378.964 1.102 0 1.988-.28 2.639-.859.652-.578.986-1.349.986-2.312 0-1.156-.434-2.032-1.286-2.645-.853-.596-2.122-.911-3.776-.911h-.334v-1.682h.317c1.487 0 2.656-.28 3.475-.84.819-.561 1.236-1.367 1.236-2.383 0-1.629-1.119-2.452-3.341-2.452-1.153 0-2.506.28-4.009.84v-1.944c1.386-.473 2.773-.7 4.143-.7 1.771 0 3.141.35 4.11 1.068.968.7 1.453 1.7 1.453 2.995 0 1.998-1.169 3.364-3.525 4.082 1.253.21 2.239.718 2.94 1.471.702.771 1.053 1.752 1.053 2.908 0 1.49-.568 2.733-1.721 3.749-1.153.998-2.573 1.506-4.277 1.506-1.52 0-3.007-.245-4.427-.7l-.034-.053zm-15.169.28V76.736h2.306v13.436l7.785-13.436h2.289v16.94h-2.306V80.238l-7.785 13.435h-2.289z" fill="#fff"/><path fill-rule="evenodd" clip-rule="evenodd" d="M135.991 93.674V76.736h4.176c1.604 0 2.84.316 3.709.964.869.63 1.303 1.559 1.303 2.768 0 .98-.284 1.839-.852 2.61-.568.753-1.386 1.349-2.439 1.769 2.623.84 3.943 2.365 3.943 4.59 0 .998-.284 1.874-.869 2.644-.451.596-.986.999-1.604 1.227-.618.245-1.487.35-2.606.35h-4.745l-.016.017zm3.007-9.494c1.219 0 2.155-.28 2.823-.823.669-.543.986-1.331.986-2.347 0-1.647-1.22-2.47-3.659-2.47h-.885v5.64h.735zm-.718 7.69h.467c1.654 0 2.74-.105 3.225-.333.935-.42 1.403-1.19 1.403-2.33 0-.998-.418-1.839-1.27-2.504-.852-.666-1.904-.999-3.191-.999h-.634v6.166zm169.65-14.705V93.28h2.293v-6.383h.997c2.043 0 3.654-.5 4.8-1.466 1.163-.967 1.728-2.316 1.728-4.033 0-1.2-.283-2.133-.847-2.816a3.31 3.31 0 00-1.678-1.1c-.698-.217-1.661-.317-2.924-.317h-4.369zm3.206 8h-.93v-6.283h1.396c1.329 0 2.275.216 2.857.616.581.417.864 1.1.864 2.067 0 1.15-.366 2.033-1.097 2.666-.731.617-1.761.933-3.09.933z" fill="#fff"/><path d="M297.698 78.865v14.398h2.276V78.865h5.697V77.15h-13.654v1.716h5.681zm-20.133-1.7v16.098h2.292v-7.599h7.608v7.6h2.293v-16.1h-2.293v6.783h-7.608v-6.783h-2.292zm-12.044 0V93.28h9.436v-1.717h-7.143v-5.799h5.598v-1.716h-5.598v-5.166h6.678v-1.717h-8.971zm-17.076 0v16.098h12.193v3.5h2.143v-5.5h-2.143V77.165h-2.293v14.098h-7.608V77.165h-2.292z" fill="#fff"/><path fill-rule="evenodd" clip-rule="evenodd" d="M85.3 8.656C86.284 3.8 87.31.963 88.587.135A.755.755 0 0188.984 0c1.72 0 1.437 8.56 1.36 9.413 0 0 2.445 1.829 7.341 5.486l-.462 4.877s-2.843-1.527-8.534-4.575c.026-.148.013-.154-.032-.02l.007.005.008.004a.078.078 0 01.017.011c-.07.41-.404 1.938-1.001 4.594l2.676 3.035a691.542 691.542 0 01-.225 2.554c-1.445-.951-2.772-1.687-4.67-1.847.995 85.939-86.876 103.749-85.452 51.698 2.997 17.993 17.081 20.707 31.596 17.242v.006c28.636-6.833 50.805-36.121 53.855-68.946-1.213-.102-2.66.03-4.518.493 0 0 .174-.834.514-2.515l3.426-2.156c.18-2.708.295-4.273.347-4.684-6.314 1.315-9.478 1.97-9.478 1.97.63-3.202.944-4.806.944-4.806L85.3 8.656zm-.025 6.019s-.019 0-.038.006c.019-.147.032-.154.038-.006z" fill="#fff"/><path d="M7.512 60.15c-2.746-3.183-2.926-8.553 1.514-15.81l.007.012c8.56-13.988 26.417-21.996 42.96-21.996 3.15 0 6.256.288 9.233.885-6.256-.584-12.73.039-18.89 1.778-10.44 2.951-19.976 9.124-26.007 18.152-10.415 15.587 11.036 20.7 24.601 3.183-9.028 17.21-27.393 20.764-33.418 13.796z" fill="#fff"/><path d="M22.693 82.564c-13.795 1.944-24.87-5.288-20.546-22.67-1.373 31.948 53.76 9.753 60.291-22.838C61.45 65.7 39.755 80.157 22.693 82.564z" fill="#fff"/><path d="M41.013 40.893l-4.947-1.72 3.003 4.287-3.164 4.17 5.005-1.533 2.997 4.3.09-5.236 5.005-1.521-4.954-1.7.11-5.23-3.145 4.183zm52.377 22.97c-3.32 46.932-63.207 72.162-84.806 39.157 27.387 23.516 74.396-1.067 84.78-39.146l-6.26 2.475 3.663-5.724-4.337-5.23L93 57.11l3.645-5.737.398 6.782 6.583 1.688-6.327 2.477.43 6.782-4.312-5.248-.026.01zM62.182 30.107l-6.577-1.713 4.331 5.236-3.664 5.717 6.32-2.496 4.313 5.242-.43-6.776 6.327-2.476-6.584-1.688-.398-6.782-3.638 5.736z" fill="#fff"/><path d="M103.272 85.349c-8.885 37.981-52.02 51.045-78.02 33.571 29.223 13.341 61.19-3.002 78.007-33.566l-4.856 1.925 2.824-4.414-3.343-4.036 5.069 1.322 2.804-4.421.308 5.223 5.076 1.302-4.877 1.912.334 5.23-3.324-4.049h-.002z" fill="#fff"/></g></symbol><symbol id="icon__phone" viewBox="0 0 32 32"><g fill="none"><path d="M29.427 24.481l-.169-.338c-.473-1.116-6.288-2.806-6.761-2.84l-.372.034c-.71.135-1.488.778-3.009 2.096-.304.27-.71.338-1.081.135-1.995-1.116-4.429-3.347-5.646-4.699-1.318-1.453-2.907-3.854-3.651-5.78-.135-.373 0-.778.27-1.049 1.725-1.555 2.468-2.298 2.536-3.11.034-.473-.98-6.456-2.029-7.031l-.304-.203c-.676-.44-1.69-1.082-2.806-.845-.27.068-.54.169-.777.304-.744.474-2.603 1.759-3.448 3.415-.507 1.048-.744 10.547 6.355 18.559 7.032 7.944 15.72 8.282 17.005 8.012h.033l.102-.034c1.758-.642 3.245-2.299 3.82-3.009 1.047-1.25.338-2.772-.068-3.617z" stroke="#fff" stroke-width="1.5"/></g></symbol></svg>