<svg width="54" height="54" viewBox="0 0 54 54" fill="none" xmlns="http://www.w3.org/2000/svg">
  <path
    d="M33.2507 34.9831L32.2269 36.0631C32.2269 36.0631 29.7902 38.6259 23.1414 31.6261C16.4927 24.6264 18.9294 22.0636 18.9294 22.0636L19.5752 21.3819C21.1637 19.7079 21.3144 17.0214 19.9262 15.0594L17.0912 11.0476C15.3722 8.61761 12.0534 8.29811 10.0847 10.3704L6.55443 14.0851C5.58018 15.1134 4.92768 16.4431 5.00643 17.9214C5.20893 21.7014 6.82443 29.8306 15.8334 39.3189C25.3892 49.3764 34.3554 49.7769 38.0207 49.4146C39.1817 49.3021 40.1897 48.6744 41.0019 47.8194L44.1969 44.4534C46.3569 42.1809 45.7494 38.2884 42.9864 36.6999L38.6889 34.2249C36.8754 33.1831 34.6682 33.4891 33.2507 34.9809"
    fill="url(#paint0_linear_2025_2697)"/>
  <path
    d="M38.75 27C41.1964 26.9996 43.5761 26.2017 45.5284 24.7272C47.4806 23.2527 48.899 21.1821 49.5685 18.829C50.2381 16.4759 50.1224 13.9687 49.2389 11.6873C48.3554 9.40592 46.7523 7.47471 44.6725 6.18635C42.5927 4.89799 40.1497 4.32271 37.7135 4.54768C35.2774 4.77265 32.981 5.78562 31.1724 7.43306C29.3637 9.08051 28.1414 11.2726 27.6907 13.6772C27.2399 16.0818 27.5853 18.5678 28.6745 20.7585C28.8798 21.1565 28.9333 21.6155 28.8252 22.05L28.1547 24.5543C28.0883 24.8022 28.0884 25.0633 28.1548 25.3112C28.2213 25.5591 28.3518 25.7852 28.5333 25.9667C28.7148 26.1482 28.9409 26.2787 29.1888 26.3452C29.4367 26.4116 29.6978 26.4116 29.9457 26.3453L32.45 25.6748C32.8845 25.5666 33.3435 25.6202 33.7415 25.8255C35.2978 26.5986 37.0122 27.0006 38.75 27Z"
    fill="url(#paint1_linear_2025_2697)"/>
  <defs>
    <linearGradient id="paint0_linear_2025_2697" x1="5" y1="29.2489" x2="45.5003" y2="29.2489"
                    gradientUnits="userSpaceOnUse">
      <stop stop-color="#24348B"/>
      <stop offset="0.5" stop-color="#2F7D58"/>
      <stop offset="1" stop-color="#5EB12E"/>
    </linearGradient>
    <linearGradient id="paint1_linear_2025_2697" x1="27.498" y1="15.75" x2="49.9981" y2="15.75"
                    gradientUnits="userSpaceOnUse">
      <stop stop-color="#24348B"/>
      <stop offset="0.5" stop-color="#2F7D58"/>
      <stop offset="1" stop-color="#5EB12E"/>
    </linearGradient>
  </defs>
</svg>
