<svg width="54" height="54" viewBox="0 0 54 54" fill="none" xmlns="http://www.w3.org/2000/svg">
  <path
    d="M25.2501 33.75C25.2501 32.9625 25.3851 32.2042 25.6348 31.5H10.0693C8.72668 31.5 7.43901 32.0333 6.48961 32.9828C5.5402 33.9322 5.00684 35.2198 5.00684 36.5625V38.6302C5.00684 39.9172 5.41184 41.1727 6.15659 42.2212C9.62609 47.0902 15.3051 49.5 23.0001 49.5C23.8941 49.5 24.7618 49.4677 25.6033 49.4032C25.3696 48.7094 25.2503 47.9821 25.2501 47.25V33.75ZM23.0001 4.51123C24.4775 4.51123 25.9404 4.80222 27.3053 5.36759C28.6702 5.93295 29.9104 6.76162 30.955 7.80628C31.9997 8.85094 32.8284 10.0911 33.3937 11.456C33.9591 12.821 34.2501 14.2839 34.2501 15.7612C34.2501 17.2386 33.9591 18.7015 33.3937 20.0664C32.8284 21.4313 31.9997 22.6715 30.955 23.7162C29.9104 24.7608 28.6702 25.5895 27.3053 26.1549C25.9404 26.7202 24.4775 27.0112 23.0001 27.0112C20.0164 27.0112 17.1549 25.826 15.0451 23.7162C12.9353 21.6064 11.7501 18.7449 11.7501 15.7612C11.7501 12.7775 12.9353 9.91606 15.0451 7.80628C17.1549 5.69649 20.0164 4.51123 23.0001 4.51123ZM27.5001 33.75C27.5001 32.5565 27.9742 31.4119 28.8181 30.568C29.662 29.7241 30.8066 29.25 32.0001 29.25H47.7501C48.9436 29.25 50.0882 29.7241 50.9321 30.568C51.776 31.4119 52.2501 32.5565 52.2501 33.75V47.25C52.2501 48.4435 51.776 49.588 50.9321 50.432C50.0882 51.2759 48.9436 51.75 47.7501 51.75H32.0001C30.8066 51.75 29.662 51.2759 28.8181 50.432C27.9742 49.588 27.5001 48.4435 27.5001 47.25V33.75ZM33.1251 36C32.8267 36 32.5406 36.1185 32.3296 36.3295C32.1186 36.5405 32.0001 36.8266 32.0001 37.125C32.0001 37.4233 32.1186 37.7095 32.3296 37.9205C32.5406 38.1315 32.8267 38.25 33.1251 38.25H46.6251C46.9235 38.25 47.2096 38.1315 47.4206 37.9205C47.6316 37.7095 47.7501 37.4233 47.7501 37.125C47.7501 36.8266 47.6316 36.5405 47.4206 36.3295C47.2096 36.1185 46.9235 36 46.6251 36H33.1251ZM33.1251 42.75C32.8267 42.75 32.5406 42.8685 32.3296 43.0795C32.1186 43.2905 32.0001 43.5766 32.0001 43.875C32.0001 44.1733 32.1186 44.4595 32.3296 44.6705C32.5406 44.8815 32.8267 45 33.1251 45H46.6251C46.9235 45 47.2096 44.8815 47.4206 44.6705C47.6316 44.4595 47.7501 44.1733 47.7501 43.875C47.7501 43.5766 47.6316 43.2905 47.4206 43.0795C47.2096 42.8685 46.9235 42.75 46.6251 42.75H33.1251Z"
    fill="url(#paint0_linear_2025_2691)"/>
  <defs>
    <linearGradient id="paint0_linear_2025_2691" x1="5.00684" y1="28.1306" x2="52.2501" y2="28.1306"
                    gradientUnits="userSpaceOnUse">
      <stop stop-color="#24348B"/>
      <stop offset="0.5" stop-color="#2F7D58"/>
      <stop offset="1" stop-color="#5EB12E"/>
    </linearGradient>
  </defs>
</svg>
