<svg width="900" height="200" viewBox="0 0 900 200" fill="none" xmlns="http://www.w3.org/2000/svg">
  <path
    d="M835.695 173V63.9091H844.147V80.9545H844.928C847.296 75.3674 851.297 70.893 856.931 67.5312C862.566 64.1222 868.981 62.4176 876.178 62.4176C876.936 62.4176 877.693 62.4176 878.451 62.4176C879.209 62.4176 879.919 62.4413 880.582 62.4886V71.2244C880.013 71.1771 879.327 71.106 878.522 71.0114C877.764 70.8693 876.817 70.7983 875.681 70.7983C869.62 70.7983 864.223 72.1004 859.488 74.7045C854.8 77.3087 851.107 80.9072 848.408 85.5C845.71 90.0455 844.36 95.2538 844.36 101.125V173H835.695Z"
    fill="currentColor"/>
  <path
    d="M762.613 175.273C752.764 175.273 744.194 172.834 736.903 167.957C729.611 163.08 723.977 156.404 719.999 147.929C716.022 139.454 714.033 129.795 714.033 118.952C714.033 108.062 716.022 98.3551 719.999 89.8324C724.024 81.3097 729.54 74.5862 736.548 69.6619C743.555 64.7377 751.557 62.2756 760.553 62.2756C766.661 62.2756 772.438 63.5066 777.883 65.9687C783.375 68.3835 788.205 71.8873 792.371 76.4801C796.585 81.0729 799.876 86.6127 802.244 93.0994C804.658 99.5862 805.866 106.878 805.866 114.974V120.372H719.502V112.489H797.201C797.201 104.581 795.591 97.4555 792.371 91.1108C789.152 84.7661 784.772 79.7235 779.232 75.9829C773.692 72.2424 767.466 70.3721 760.553 70.3721C753.309 70.3721 746.846 72.4081 741.164 76.4801C735.53 80.5047 731.055 85.9498 727.741 92.8153C724.474 99.6809 722.769 107.351 722.627 115.827V119.378C722.627 128.469 724.213 136.636 727.386 143.881C730.605 151.078 735.198 156.783 741.164 160.997C747.13 165.164 754.28 167.247 762.613 167.247C768.579 167.247 773.669 166.253 777.883 164.264C782.144 162.228 785.624 159.766 788.323 156.878C791.022 153.99 793.058 151.196 794.431 148.497L802.315 151.693C800.657 155.339 798.077 158.985 794.573 162.631C791.117 166.229 786.713 169.236 781.363 171.651C776.06 174.065 769.81 175.273 762.613 175.273Z"
    fill="currentColor"/>
  <path
    d="M636.405 175.273C627.646 175.273 619.999 172.858 613.465 168.028C606.931 163.199 601.865 156.546 598.266 148.071C594.715 139.548 592.94 129.771 592.94 118.739C592.94 107.801 594.739 98.0947 598.337 89.6193C601.983 81.0966 607.073 74.4204 613.607 69.5909C620.141 64.714 627.764 62.2756 636.477 62.2756C642.727 62.2756 648.148 63.483 652.741 65.8977C657.381 68.2652 661.263 71.4138 664.388 75.3438C667.561 79.2737 669.976 83.5824 671.633 88.2699H672.485V27.5454H681.079V173H672.698V149.207H671.633C669.881 153.895 667.442 158.227 664.317 162.205C661.192 166.134 657.31 169.307 652.67 171.722C648.03 174.089 642.608 175.273 636.405 175.273ZM637.187 167.247C644.573 167.247 650.894 165.14 656.15 160.926C661.453 156.665 665.501 150.888 668.295 143.597C671.136 136.258 672.556 127.948 672.556 118.668C672.556 109.387 671.136 101.125 668.295 93.8807C665.501 86.589 661.453 80.8599 656.15 76.6932C650.894 72.4792 644.573 70.3721 637.187 70.3721C629.706 70.3721 623.29 72.5028 617.94 76.7642C612.637 80.9782 608.565 86.7311 605.724 94.0227C602.93 101.314 601.533 109.529 601.533 118.668C601.533 127.806 602.93 136.045 605.724 143.384C608.565 150.723 612.637 156.546 617.94 160.855C623.29 165.116 629.706 167.247 637.187 167.247Z"
    fill="currentColor"/>
  <path d="M563.11 27.5454V173H554.445V27.5454H563.11Z" fill="currentColor"/>
  <path
    d="M509.559 173V63.9091H518.153V173H509.559ZM513.891 44.5909C511.997 44.5909 510.34 43.928 508.92 42.6023C507.547 41.2765 506.86 39.6667 506.86 37.7727C506.86 35.8788 507.547 34.2689 508.92 32.9432C510.293 31.6174 511.95 30.9545 513.891 30.9545C515.785 30.9545 517.419 31.6174 518.792 32.9432C520.212 34.2689 520.923 35.8788 520.923 37.7727C520.923 39.6667 520.236 41.2765 518.863 42.6023C517.49 43.928 515.833 44.5909 513.891 44.5909Z"
    fill="currentColor"/>
  <path
    d="M464.566 134.293V63.9091H473.231V173H464.566V155.315H463.856C461.299 160.95 457.156 165.543 451.427 169.094C445.745 172.645 439.022 174.42 431.256 174.42C424.107 174.42 417.786 172.858 412.293 169.733C406.801 166.608 402.492 162.181 399.367 156.452C396.242 150.675 394.68 143.81 394.68 135.855V63.9091H403.344V135.5C403.344 144.591 406.091 151.954 411.583 157.588C417.123 163.175 424.272 165.969 433.032 165.969C438.714 165.969 443.946 164.69 448.728 162.134C453.51 159.577 457.345 155.931 460.234 151.196C463.122 146.414 464.566 140.779 464.566 134.293Z"
    fill="currentColor"/>
  <path
    d="M269.023 173V27.5454H316.253C325.06 27.5454 332.493 29.1079 338.554 32.2329C344.615 35.3579 349.207 39.7377 352.332 45.3721C355.505 51.0066 357.091 57.5644 357.091 65.0454C357.091 70.9167 356.144 76.125 354.25 80.6704C352.356 85.2159 349.705 88.9801 346.295 91.9631C342.934 94.8987 338.98 96.9347 334.435 98.071V98.9233C339.454 99.3021 344.117 101.054 348.426 104.179C352.735 107.257 356.191 111.447 358.795 116.75C361.447 122.053 362.773 128.232 362.773 135.287C362.773 142.721 361.163 149.278 357.943 154.96C354.771 160.595 350.012 165.022 343.668 168.241C337.323 171.414 329.463 173 320.088 173H269.023ZM277.901 164.761H320.088C331.026 164.761 339.43 162.015 345.301 156.523C351.22 151.03 354.179 143.952 354.179 135.287C354.179 129.179 352.735 123.71 349.847 118.881C347.006 114.051 343.052 110.24 337.986 107.446C332.919 104.605 327.048 103.185 320.372 103.185H277.901V164.761ZM277.901 95.0881H319.307C325.509 95.0881 330.765 93.7386 335.074 91.0398C339.43 88.3409 342.744 84.7188 345.017 80.1733C347.337 75.6278 348.497 70.5852 348.497 65.0454C348.497 56.0492 345.704 48.9233 340.116 43.6676C334.529 38.4119 326.575 35.7841 316.253 35.7841H277.901V95.0881Z"
    fill="currentColor"/>
  <rect x="30" y="30" width="20" height="20" rx="10" fill="#10B981"/>
  <rect x="30" y="60" width="20" height="20" rx="10" fill="#10B981"/>
  <rect x="30" y="90" width="20" height="20" rx="10" fill="#10B981"/>
  <rect x="30" y="120" width="20" height="20" rx="10" fill="#10B981"/>
  <rect x="30" y="150" width="20" height="20" rx="10" fill="#10B981"/>
  <rect x="60" y="30" width="20" height="20" rx="10" fill="currentColor"/>
  <rect x="60" y="60" width="20" height="20" rx="10" fill="currentColor"/>
  <rect x="60" y="120" width="20" height="20" rx="10" fill="currentColor"/>
  <rect x="60" y="150" width="20" height="20" rx="10" fill="currentColor"/>
  <rect x="90" y="30" width="20" height="20" rx="10" fill="currentColor"/>
  <rect x="90" y="60" width="20" height="20" rx="10" fill="currentColor"/>
  <rect x="90" y="90" width="20" height="20" rx="10" fill="currentColor"/>
  <rect x="90" y="150" width="20" height="20" rx="10" fill="currentColor"/>
  <rect x="120" y="30" width="20" height="20" rx="10" fill="currentColor"/>
  <rect x="120" y="90" width="20" height="20" rx="10" fill="currentColor"/>
  <rect x="120" y="120" width="20" height="20" rx="10" fill="currentColor"/>
  <rect x="120" y="150" width="20" height="20" rx="10" fill="currentColor"/>
  <rect x="150" y="30" width="20" height="20" rx="10" fill="#10B981"/>
  <rect x="150" y="60" width="20" height="20" rx="10" fill="#10B981"/>
  <rect x="150" y="90" width="20" height="20" rx="10" fill="#10B981"/>
  <rect x="150" y="120" width="20" height="20" rx="10" fill="#10B981"/>
  <rect x="150" y="150" width="20" height="20" rx="10" fill="#10B981"/>
  <path d="M8.50281 190.545V8.72726H39.1846V16.3977H16.8835V182.875H39.1846V190.545H8.50281Z" fill="currentColor"/>
  <path d="M193.69 8.72726V190.545H163.009V182.875H185.31V16.3977H163.009V8.72726H193.69Z" fill="currentColor"/>
</svg>
