<svg width="54" height="54" viewBox="0 0 54 54" fill="none" xmlns="http://www.w3.org/2000/svg">
  <path
    d="M25.8125 4.66436C24.449 4.91861 22.847 5.46761 20.3855 6.31136L19.0963 6.75011C12.3305 9.06761 8.94875 10.2241 8.1005 11.4346C7.268 12.6181 7.25 16.0876 7.25 22.9726L25.8125 16.7851V4.66436ZM25.8125 20.3401L7.25 26.5276V26.9799C7.25 39.6654 16.7878 45.8214 22.7728 48.4359C23.9203 48.9376 24.6628 49.2616 25.8125 49.4079V20.3401ZM29.1875 49.4101V20.3401L47.75 26.5276V26.9799C47.75 39.6654 38.2122 45.8214 32.2272 48.4359C31.0797 48.9376 30.3372 49.2639 29.1875 49.4101ZM29.1875 16.7851V4.66211C30.551 4.91636 32.153 5.46536 34.6145 6.30911L35.9037 6.75011C42.6695 9.06536 46.0512 10.2219 46.8995 11.4324C47.732 12.6159 47.75 16.0854 47.75 22.9681L29.1875 16.7851Z"
    fill="url(#paint0_linear_2025_2693)"/>
  <defs>
    <linearGradient id="paint0_linear_2025_2693" x1="7.25" y1="27.0361" x2="47.75" y2="27.0361"
                    gradientUnits="userSpaceOnUse">
      <stop stop-color="#24348B"/>
      <stop offset="0.5" stop-color="#2F7D58"/>
      <stop offset="1" stop-color="#5EB12E"/>
    </linearGradient>
  </defs>
</svg>
